<svg width="71" height="60" viewBox="0 0 71 60" fill="none" xmlns="http://www.w3.org/2000/svg">
<path d="M39.4666 29.9833C38.5562 22.8125 32.4166 17.25 25 17.25C19.2583 17.25 14.2708 20.6062 11.9937 25.8958C7.51871 27.2333 4.16663 31.4583 4.16663 36C4.16663 41.7438 8.83954 46.4167 14.5833 46.4167H37.5C42.0958 46.4167 45.8333 42.6792 45.8333 38.0833C45.8301 36.2159 45.2013 34.4033 44.0472 32.9351C42.8932 31.4668 41.2805 30.4276 39.4666 29.9833V29.9833Z" fill="#EDE8E8"/>
<g clip-path="url(#clip0)">
<path d="M28.5729 21.8333C28.5729 27.5854 33.252 32.2646 39.0041 32.2646C44.7562 32.2646 49.4354 27.5854 49.4354 21.8333C49.4354 16.0813 44.7562 11.4021 39.0041 11.4021C33.252 11.4021 28.5729 16.0813 28.5729 21.8333ZM36.9166 36.4167H41.0833V42.6667H36.9166V36.4167ZM36.9166 1H41.0833V7.25H36.9166V1ZM18.1666 19.75H24.4166V23.9167H18.1666V19.75ZM53.5833 19.75H59.8333V23.9167H53.5833V19.75ZM25.7437 38.0375L22.7979 35.0917L27.2166 30.6729L30.1625 33.6188L25.7437 38.0375ZM47.8375 10.05L52.2583 5.62917L55.2041 8.575L50.7833 12.9958L47.8375 10.05ZM27.2166 12.9979L22.7979 8.57708L25.7458 5.63125L30.1625 10.0521L27.2166 12.9979ZM55.2041 35.0917L52.2583 38.0375L47.8375 33.6167L50.7833 30.6708L55.2041 35.0917Z" fill="#FFFDFD"/>
</g>
<defs>
<clipPath id="clip0">
<rect width="50" height="50" fill="white" transform="translate(21)"/>
</clipPath>
</defs>
</svg>
