<svg width="50" height="50" viewBox="0 0 50 50" fill="none" xmlns="http://www.w3.org/2000/svg">
<path d="M39.2726 6.3618V8.49273H31.0154V6.3618H39.2726ZM35.8099 11.006H31.0154V13.1369H35.8099V11.006ZM31.0154 17.781H39.2726V15.6503H31.0154V17.781ZM35.8099 20.2956H31.0154V22.4265H35.8099V20.2956ZM31.0154 27.0707H39.2726V24.9397H31.0154V27.0707ZM32.3025 39.2124C32.3025 45.1607 27.4633 50 21.5149 50C15.5666 50 10.7273 45.1607 10.7273 39.2124C10.7273 35.3577 12.7516 31.8544 16.0545 29.9164V5.46045C16.0546 2.4494 18.504 0 21.5149 0C24.5258 0 26.9754 2.4494 26.9754 5.46045V29.9166C30.2782 31.8524 32.3025 35.3567 32.3025 39.2124ZM30.1716 39.2124C30.1716 35.9415 28.354 32.9849 25.4271 31.4986L24.8444 31.2024V5.46145C24.8444 3.62461 23.3508 2.13193 21.5149 2.13193C19.6792 2.13193 18.1854 3.62461 18.1854 5.46145V31.2024L17.6027 31.4986C14.6758 32.986 12.8582 35.9425 12.8582 39.2124C12.8582 43.9855 16.7418 47.8691 21.5149 47.8691C26.288 47.8691 30.1716 43.9855 30.1716 39.2124ZM28.3966 39.2124C28.3966 43.0064 25.3099 46.0931 21.5149 46.0931C17.7209 46.0931 14.6342 43.0064 14.6342 39.2124C14.6342 36.1024 16.7353 33.3716 19.7441 32.5716L20.1393 32.4661V19.324H22.8914V32.4651L23.2866 32.5717C26.2967 33.3716 28.3966 36.1035 28.3966 39.2124ZM21.8559 34.6258C21.6918 33.897 20.9589 33.4175 20.2119 33.588C17.6037 34.1781 15.7818 36.4593 15.7818 39.1358C15.7818 39.8932 16.3986 40.5103 17.1562 40.5103C17.9138 40.5103 18.5307 39.8934 18.5307 39.1358C18.5307 37.7752 19.4917 36.5692 20.8181 36.2698C21.5554 36.1002 22.022 35.363 21.8559 34.6258Z" fill="#F5F5F5"/>
</svg>
