<svg xmlns="http://www.w3.org/2000/svg" version="1.1" xmlns:xlink="http://www.w3.org/1999/xlink" xmlns:svgjs="http://svgjs.dev/svgjs" viewBox="0 0 1920 1080"><rect width="1920" height="1080" fill="#004a99"></rect><g transform="matrix(7.04171909509728e-17,1.15,-1.15,7.04171909509728e-17,1519.9830932617188,-493.8305572509764)"><path d="M0,-1080C3.534756516764721,-978.4254752376172,26.067496021224088,-644.597422267761,21.208539100588325,-470.5528514257034C16.349582179952563,-296.5082805836459,-5.962649585139417,-206.78402598369937,-29.153741523814574,-35.732574947654996C-52.34483346248973,135.31887608838937,-142.11525996681704,386.5801375251401,-117.93801253146262,555.7558547905628C-93.76076509610819,724.9315720559855,112.87342334739172,806.5598749155606,115.90974308831198,979.3217286448812C118.94606282923225,1152.0835823742018,-80.40180357122235,1395.5472652739663,-99.72009408594101,1592.3269771664861C-119.03838460065968,1789.106689059006,-16.620015680990168,2065.3878295277477,0,2160L 1920 2160 L 1920 -1080 Z" fill="url(&quot;#SvgjsLinearGradient1150&quot;)"></path><path d="M174.54545454545456,-1080C159.40555842191299,-1021.6323371746612,84.3924165156143,-871.5436668366077,83.70607780420505,-729.7940230479671C83.0197390927958,-588.0443792593265,138.9516615068968,-405.19601781437143,170.42742227699904,-229.50213726815673C201.90318304710127,-53.80825672194206,252.93005622130812,165.62808663803276,272.56064242481835,324.36926022932084C292.1912286283286,483.11043382060893,285.61810688170414,566.8261323550822,288.21093949806044,722.9449042795718C290.80377211441674,879.0636762040614,292.5576551878209,1083.9718957215662,288.1176381229562,1261.0818917762585C283.67762105809146,1438.191887830951,280.49953437178897,1635.7851959037696,261.570837108872,1785.6048806077265C242.64213984595509,1935.4245653116834,189.0496849726908,2097.600813434621,174.54545454545456,2160L 1920 2160 L 1920 -1080 Z" fill="url(&quot;#SvgjsLinearGradient1151&quot;)"></path><path d="M349.0909090909091,-1080C344.02801595466514,-1010.2504072502104,339.37913922627376,-826.936816286748,318.71355027344526,-661.5024435012624C298.04796132061676,-496.0680707157768,218.5002687408518,-308.5738751286111,225.09737537393795,-87.39376328708619C231.6944820070241,133.78634855443877,328.6898827660092,465.9770176712433,358.29619007196226,665.5782275478874C387.9024973779153,865.1794374245316,383.81869918097016,963.232747642785,402.73521920965624,1110.2134959727784C421.6517392383423,1257.194244302772,480.7360285972032,1372.4983001899786,471.7953102440787,1547.4627175278488C462.85459189095417,1722.427134865719,369.5416426164374,2057.910452921308,349.0909090909091,2160L 1920 2160 L 1920 -1080 Z" fill="url(&quot;#SvgjsLinearGradient1152&quot;)"></path><path d="M523.6363636363636,-1080C506.6421668579421,-1025.8348345733616,436.98973526337704,-905.2687670331485,421.6711829658342,-755.0090074401703C406.35263066829134,-604.7492478471921,413.9385430861959,-319.4165411411389,431.72504985110635,-178.4414424421306C449.5115566160168,-37.46634374312231,513.5127486033175,-40.71231993893261,528.3902235552966,90.84158475387954C543.2676985072758,222.3954894466917,524.9688965549853,457.21033265711037,520.9898995629809,610.8819857147423C517.0109025709764,764.5536387723743,502.0900001549753,885.9669165053507,504.51624160327003,1012.8715030996713C506.94248305156475,1139.776089693992,527.6307951840841,1243.8964489747527,535.5473482527493,1372.309505280666C543.4639013214145,1500.722561586579,554.0007241179917,1652.0680918152607,552.0155600152608,1783.3498409351498C550.0303959125299,1914.631590055039,528.3662296995132,2097.2249734891916,523.6363636363636,2160L 1920 2160 L 1920 -1080 Z" fill="url(&quot;#SvgjsLinearGradient1153&quot;)"></path><path d="M698.1818181818182,-1080C705.1370459555133,-1024.8407212941288,721.774353037571,-881.1972651729301,739.9131848239886,-749.0443277647724C758.0520166104061,-616.8913903566148,811.2030481850521,-421.4752096654712,807.0148089003235,-287.0823755510541C802.8265696155948,-152.68954143663697,739.8727815287967,-87.51236115304329,714.7837491156165,57.3126769217302C689.6947167024363,202.1377149965037,644.9519681173864,420.0691016450112,656.4806144212423,581.8678528975869C668.0092607250982,743.6666041501626,785.0494159429799,918.8654801829341,783.955626938752,1028.1051844371843C782.861837934524,1137.3448886914346,649.4006001799711,1099.2582751049677,649.9178803958746,1237.3060784230886C650.4351606117781,1375.3538817412095,779.0153186031825,1702.6096840830917,787.0593082341732,1856.3920043459102C795.1032978651638,2010.1743246087287,712.994733190544,2109.398667390985,698.1818181818182,2160L 1920 2160 L 1920 -1080 Z" fill="url(&quot;#SvgjsLinearGradient1154&quot;)"></path><path d="M872.7272727272727,-1080C865.5032128662734,-1010.6151675364893,839.7340739077719,-845.8215735918883,829.3829135612766,-663.6910052189359C819.0317532147814,-481.5604368459834,794.5860422692392,-192.69687288452891,810.6203106483015,12.783410237714918C826.6545790273638,218.26369335995875,920.0044264206736,391.41686071984964,925.5885238356501,569.1906935145271C931.1726212506267,746.9645263092045,837.8077752843237,900.0855023044045,844.124895138161,1079.4264070057795C850.4420149919983,1258.7673117071545,958.7241800271551,1465.140522890407,963.4912429586736,1645.2361217227772C968.2583058901922,1825.3317205551473,887.8546010991729,2074.2060202871294,872.7272727272727,2160L 1920 2160 L 1920 -1080 Z" fill="url(&quot;#SvgjsLinearGradient1155&quot;)"></path><path d="M1047.2727272727273,-1080C1033.930397987258,-983.6307304832345,974.3203621848875,-670.2967331854404,967.2187515599119,-501.78438289940715C960.1171409349363,-333.2720326133739,978.8210328417555,-218.86626697325536,1004.6630635228735,-68.92589828380056C1030.5050942039916,81.01447040565424,1116.5266075721927,240.66203585241536,1122.27093564662,397.8578292373216C1128.0152637210474,555.0536226222279,1040.7609440917483,748.0209667851698,1039.1290319694378,874.248862025637C1037.4971198471274,1000.4767572661042,1103.6781055636593,1013.7200524997138,1112.479462912757,1155.2252006801248C1121.2808202618548,1296.7303488605357,1102.804965337363,1555.8172845547901,1091.9371760640247,1723.2797511081026C1081.0693867906864,1890.742217661415,1054.7168020712768,2087.2132918513503,1047.2727272727273,2160L 1920 2160 L 1920 -1080 Z" fill="url(&quot;#SvgjsLinearGradient1156&quot;)"></path><path d="M1221.8181818181818,-1080C1239.5938392891317,-1009.5418176946492,1338.1354262983134,-828.1714977018398,1328.472126643881,-657.2509061678956C1318.8088269894486,-486.3303146339513,1194.4429364784116,-207.60633750326167,1163.8383838915872,-54.47645079633412C1133.2338313047628,98.65343591059343,1139.1715065509343,131.64685187493095,1144.844811122935,261.52841407366975C1150.5181156949357,391.4099762724086,1174.85226666418,561.5006328017786,1197.8782113235916,724.8129223960987C1220.9041559830032,888.1252119904187,1285.1909782885473,1084.952771064513,1283.000479079405,1241.40215163959C1280.8099798702629,1397.8515322146673,1194.9322656122758,1510.4095644531599,1184.7352160687387,1663.5092058465616C1174.5381665252016,1816.6088472399633,1215.6376875266078,2077.2515343077603,1221.8181818181818,2160L 1920 2160 L 1920 -1080 Z" fill="url(&quot;#SvgjsLinearGradient1157&quot;)"></path><path d="M1396.3636363636365,-1080C1395.9588948521719,-947.3224486313256,1403.9848633119582,-556.3680401104389,1393.935187294849,-283.9346917879536C1383.8855112777396,-11.501343465468437,1350.693559138364,272.67609877490116,1336.065580260981,554.6000899349112C1321.4376013835981,836.5240810949213,1296.1176380134423,1140.0426034945922,1306.1673140305516,1407.609255172107C1316.2169900476608,1675.1759068496217,1381.330915974789,2034.6015425286846,1396.3636363636365,2160L 1920 2160 L 1920 -1080 Z" fill="url(&quot;#SvgjsLinearGradient1158&quot;)"></path><path d="M1570.909090909091,-1080C1583.7119370786527,-979.417715763049,1641.3387003437404,-682.9376844611162,1647.7261679264604,-476.50629457829433C1654.1136355091805,-270.07490469547247,1620.050732754975,-64.05368428421832,1609.233896405412,158.5883392969314C1598.417060055849,381.2303628780811,1573.2929285668401,618.6912408322759,1582.8251498290833,859.345846908604C1592.3573710913265,1100.000452984932,1668.4132337988706,1385.7402835730006,1666.4272239788718,1602.5159757549C1664.441214158873,1819.2916679367993,1586.8287797540545,2067.08599595915,1570.909090909091,2160L 1920 2160 L 1920 -1080 Z" fill="url(&quot;#SvgjsLinearGradient1159&quot;)"></path><path d="M1745.4545454545455,-1080C1759.4915045426667,-953.370481447706,1843.0564214473345,-532.519904387231,1829.676299983273,-320.22288868623565C1816.2961785192117,-107.92587298524023,1698.4121699441398,1.3963487421661114,1665.173816670177,193.78209420597256C1631.9354633962143,386.167839669779,1601.1512319621895,612.0639019519513,1630.2461803394972,834.0915840966031C1659.3411287168049,1056.119266241255,1820.5421127481818,1304.9634510899841,1839.7435069340231,1525.9481870738837C1858.9449011198644,1746.9329230577832,1761.1693723677918,2054.3246978456473,1745.4545454545455,2160L 1920 2160 L 1920 -1080 Z" fill="url(&quot;#SvgjsLinearGradient1160&quot;)"></path></g><defs><linearGradient x1="0.1" y1="0" x2="0" y2="1" id="SvgjsLinearGradient1150"><stop stop-color="#004a99" offset="0"></stop><stop stop-color="#006399" offset="0"></stop></linearGradient><linearGradient x1="0.1" y1="0" x2="0" y2="1" id="SvgjsLinearGradient1151"><stop stop-color="#00458e" offset="0"></stop><stop stop-color="#005d8e" offset="0.09090909090909091"></stop></linearGradient><linearGradient x1="0.1" y1="0" x2="0" y2="1" id="SvgjsLinearGradient1152"><stop stop-color="#003f83" offset="0"></stop><stop stop-color="#005583" offset="0.18181818181818182"></stop></linearGradient><linearGradient x1="0.1" y1="0" x2="0" y2="1" id="SvgjsLinearGradient1153"><stop stop-color="#003a78" offset="0"></stop><stop stop-color="#004e78" offset="0.2727272727272727"></stop></linearGradient><linearGradient x1="0.1" y1="0" x2="0" y2="1" id="SvgjsLinearGradient1154"><stop stop-color="#00356d" offset="0"></stop><stop stop-color="#00476d" offset="0.36363636363636365"></stop></linearGradient><linearGradient x1="0.1" y1="0" x2="0" y2="1" id="SvgjsLinearGradient1155"><stop stop-color="#002f62" offset="0"></stop><stop stop-color="#003f62" offset="0.45454545454545453"></stop></linearGradient><linearGradient x1="0.1" y1="0" x2="0" y2="1" id="SvgjsLinearGradient1156"><stop stop-color="#002a57" offset="0"></stop><stop stop-color="#003857" offset="0.5454545454545454"></stop></linearGradient><linearGradient x1="0.1" y1="0" x2="0" y2="1" id="SvgjsLinearGradient1157"><stop stop-color="#00254b" offset="0"></stop><stop stop-color="#00314b" offset="0.6363636363636364"></stop></linearGradient><linearGradient x1="0.1" y1="0" x2="0" y2="1" id="SvgjsLinearGradient1158"><stop stop-color="#001f40" offset="0"></stop><stop stop-color="#002a40" offset="0.7272727272727273"></stop></linearGradient><linearGradient x1="0.1" y1="0" x2="0" y2="1" id="SvgjsLinearGradient1159"><stop stop-color="#001a35" offset="0"></stop><stop stop-color="#002335" offset="0.8181818181818182"></stop></linearGradient><linearGradient x1="0.1" y1="0" x2="0" y2="1" id="SvgjsLinearGradient1160"><stop stop-color="#00142a" offset="0"></stop><stop stop-color="#001b2a" offset="0.9090909090909091"></stop></linearGradient></defs></svg>