<svg width="50" height="50" viewBox="0 0 50 50" fill="none" xmlns="http://www.w3.org/2000/svg">
<path d="M27.0833 11.4583C27.0833 7.43751 23.8125 4.16667 19.7916 4.16667C15.5541 4.16667 13.0208 7.34376 13.0208 10.4167H17.1875C17.1875 9.55209 17.9958 8.33334 19.7916 8.33334C21.5145 8.33334 22.9166 9.73542 22.9166 11.4583C22.9166 13.1813 21.5145 14.5833 19.7916 14.5833H4.16663V18.75H19.7916C23.8125 18.75 27.0833 15.4792 27.0833 11.4583ZM32.2916 31.25H16.6666V35.4167H32.2916C34.0145 35.4167 35.4166 36.8188 35.4166 38.5417C35.4166 40.2646 34.0145 41.6667 32.2916 41.6667C30.4958 41.6667 29.6875 40.4479 29.6875 39.5833H25.5208C25.5208 42.6563 28.0541 45.8333 32.2916 45.8333C36.3125 45.8333 39.5833 42.5625 39.5833 38.5417C39.5833 34.5208 36.3125 31.25 32.2916 31.25Z" fill="#F5F5F5"/>
<path d="M37.5 10.4167C32.9041 10.4167 29.1666 14.1542 29.1666 18.75H33.3333C33.3333 16.4521 35.202 14.5833 37.5 14.5833C39.7979 14.5833 41.6666 16.4521 41.6666 18.75C41.6666 21.0479 39.7979 22.9167 37.5 22.9167H4.16663V27.0833H37.5C42.0958 27.0833 45.8333 23.3458 45.8333 18.75C45.8333 14.1542 42.0958 10.4167 37.5 10.4167ZM4.16663 31.25H12.5V35.4167H4.16663V31.25Z" fill="#F5F5F5"/>
</svg>
